<?xml version="1.0" encoding="UTF-8" standalone="no"?>
<!-- Created with Inkscape (http://www.inkscape.org/) -->

<svg
   width="243mm"
   height="243mm"
   viewBox="0 0 243 243"
   version="1.1"
   id="svg1"
   xml:space="preserve"
   inkscape:version="1.4.2 (ebf0e940, 2025-05-08)"
   sodipodi:docname="favicon.svg"
   xmlns:inkscape="http://www.inkscape.org/namespaces/inkscape"
   xmlns:sodipodi="http://sodipodi.sourceforge.net/DTD/sodipodi-0.dtd"
   xmlns="http://www.w3.org/2000/svg"
   xmlns:svg="http://www.w3.org/2000/svg"><sodipodi:namedview
     id="namedview1"
     pagecolor="#ffffff"
     bordercolor="#000000"
     borderopacity="0.25"
     inkscape:showpageshadow="2"
     inkscape:pageopacity="0.0"
     inkscape:pagecheckerboard="0"
     inkscape:deskcolor="#d1d1d1"
     inkscape:document-units="mm"
     inkscape:zoom="0.4408675"
     inkscape:cx="434.37087"
     inkscape:cy="688.41545"
     inkscape:window-width="1512"
     inkscape:window-height="916"
     inkscape:window-x="0"
     inkscape:window-y="38"
     inkscape:window-maximized="1"
     inkscape:current-layer="layer1"
     showgrid="false" /><defs
     id="defs1" /><g
     inkscape:label="Ebene 1"
     inkscape:groupmode="layer"
     id="layer1"><g
       id="g4"
       transform="matrix(1.1228738,0,0,1.1228738,-13.920145,-17.215818)"><g
         id="g3"><circle
           style="fill:#ffffff;stroke-width:0.493904"
           id="path2"
           cx="120.61446"
           cy="123.01498"
           r="105.01069" /></g></g><path
       style="fill:#000000;stroke-width:0.914222"
       d="m 92.558597,228.92894 c -1.149537,-0.28586 -1.957784,-0.99195 -2.56267,-2.23874 -0.718118,-1.48022 -0.717784,-3.35217 8.01e-4,-4.47524 0.894427,-1.3979 1.772237,-1.75442 5.558206,-2.25744 12.564146,-1.66932 20.672616,-4.41758 35.982326,-12.19578 9.5052,-4.82918 9.48319,-4.82361 17.76778,-4.50225 8.08058,0.31345 15.97505,0.26401 18.76501,-0.11749 8.16091,-1.11595 14.76308,-3.53571 20.28416,-7.43437 4.67542,-3.30148 7.32861,-6.6238 8.95516,-11.21367 0.58194,-1.64217 0.6618,-2.21326 0.67689,-4.84074 0.0144,-2.49932 -0.0706,-3.24631 -0.52773,-4.63976 -2.98452,-9.09747 -14.09546,-13.48411 -24.71499,-9.75757 -3.76898,1.32259 -6.78134,3.06324 -11.66421,6.74003 -2.68771,2.02385 -3.72304,2.88647 -14.10402,11.75134 -9.62403,8.21846 -16.82808,13.68577 -22.72511,17.24658 -9.79751,5.91603 -19.52182,9.60796 -28.892201,10.96917 -4.139216,0.60131 -13.831387,0.60335 -17.900509,0.004 -11.348076,-1.67206 -21.539309,-6.22404 -27.711397,-12.37747 -3.791586,-3.78012 -6.624141,-8.52702 -8.04481,-13.48178 -0.587953,-2.05058 -0.641855,-2.59123 -0.655847,-6.57844 -0.01742,-4.96312 0.242668,-6.41363 1.773498,-9.89088 1.222236,-2.7763 2.621298,-4.78253 4.930992,-7.07099 4.231455,-4.19258 9.657615,-6.68188 16.170877,-7.41859 l 2.620799,-0.29643 -1.733348,-1.04038 C 49.731574,144.76272 45.3448,124.66996 54.228592,105.35386 c 3.727044,-8.103743 8.866177,-14.555783 16.22942,-20.375572 7.223248,-5.70914 17.120489,-10.529507 26.314159,-12.816084 0.972244,-0.241809 1.799877,-0.467272 1.839183,-0.501029 0.0393,-0.03376 -0.398027,-0.828086 -0.971854,-1.765176 -3.457539,-5.646319 -4.952366,-10.985529 -4.959829,-17.715441 -0.0078,-7.101609 1.568755,-12.699463 5.206764,-18.4867 2.859205,-4.548348 7.929235,-9.161586 12.452285,-11.330389 1.93582,-0.928229 5.43487,-2.206261 6.04039,-2.206261 0.55801,0 0.54036,-0.12508 -0.15268,-1.082069 -2.59705,-3.586181 -2.49899,-8.161257 0.23175,-10.8123673 2.08459,-2.0238111 4.62818,-2.8934313 7.86237,-2.6880531 4.31899,0.2742658 7.40903,2.5108108 8.30943,6.0142884 0.56842,2.211753 -0.16101,5.358984 -1.71637,7.405501 -0.396,0.52105 -0.68284,0.972712 -0.63742,1.003694 0.0455,0.03098 0.93109,0.310714 1.96815,0.621627 7.78121,2.332827 15.00331,8.525692 18.80956,16.128977 1.32757,2.651906 2.61135,6.615307 3.09936,9.568498 0.47534,2.8766 0.47384,8.545939 -0.003,11.417332 -0.70081,4.219767 -2.37919,8.727076 -4.57485,12.285777 -0.53614,0.868966 -0.94274,1.60837 -0.90357,1.643123 0.0392,0.03475 0.91973,0.256397 1.95678,0.492548 4.52653,1.030739 12.65141,4.249976 17.24639,6.833353 17.00659,9.561393 27.28678,23.990103 29.41446,41.284483 1.76579,14.35299 -3.78621,26.91856 -14.81989,33.54113 l -1.73845,1.04344 2.62589,0.28132 c 6.86861,0.73587 12.73713,3.58226 16.94129,8.21695 4.09096,4.50994 6.07609,9.73534 6.0692,15.97582 -0.0128,11.43745 -6.91686,21.21288 -19.44177,27.52688 -6.56941,3.31173 -15.40238,5.43785 -22.59162,5.43785 -1.99449,0 -2.30495,0.0542 -2.18568,0.38157 0.68683,1.88511 0.89953,3.33014 0.79868,5.42594 -0.12723,2.64416 -0.69391,4.40136 -2.00513,6.21777 -2.94871,4.08474 -6.74339,5.29642 -12.90601,4.121 -7.24231,-1.38132 -14.42852,-3.71216 -20.31108,-6.58783 l -2.3829,-1.16488 -2.79474,1.11499 c -6.03651,2.40833 -13.1074,4.60674 -18.4685,5.74203 -2.52974,0.5357 -10.058143,1.67998 -10.556378,1.60452 -0.09226,-0.014 -0.525951,-0.11441 -0.963746,-0.22334 z M 153.33648,219.87 c 2.05022,-1.11665 1.75833,-3.52941 -0.56762,-4.69189 -1.46918,-0.7343 -10.06262,-2.93741 -10.82839,-2.7761 -0.61771,0.1301 -5.80715,3.0331 -5.80715,3.24853 0,0.16542 6.56914,2.35878 8.95643,2.99048 2.68434,0.71029 6.46166,1.54546 7.14149,1.579 0.23329,0.0115 0.73066,-0.146 1.10524,-0.35002 z M 91.704719,203.34841 c 7.587517,-0.6844 14.939701,-2.91368 22.002621,-6.67143 l 1.4971,-0.79653 -2.08634,-1.59422 c -3.51012,-2.68216 -7.23714,-5.75793 -13.517582,-11.1555 -15.674979,-13.47147 -20.554022,-16.78914 -27.275502,-18.54688 -2.942968,-0.76962 -7.801663,-0.76556 -10.789318,0.009 -7.673768,1.98944 -12.357656,7.69553 -12.370529,15.07028 -0.01212,6.94755 4.837072,13.73853 12.896056,18.06013 8.556638,4.58843 19.053751,6.58039 29.643494,5.62517 z m 34.263771,-13.86842 c 3.00726,-2.12971 9.34359,-7.1964 14.76089,-11.80317 8.00527,-6.80752 8.46441,-7.19516 9.19212,-7.76057 l 0.70709,-0.5494 -26.86928,0.004 -26.86929,0.004 0.806515,0.67101 c 0.443583,0.36905 3.360315,2.88531 6.481625,5.59165 3.12132,2.70635 7.3352,6.25059 9.3642,7.87606 3.81714,3.05802 9.79206,7.43512 10.14924,7.43512 0.11199,0 1.1366,-0.66074 2.27689,-1.46827 z m 35.73779,-28.39534 c 1.16669,-0.80601 2.65157,-1.76099 3.29973,-2.12219 l 1.17848,-0.65674 -2.71049,-0.14673 c -1.49078,-0.0807 -3.10824,-0.23308 -3.59436,-0.33863 l -0.88386,-0.19191 v 2.64882 c 0,2.05385 0.0662,2.60661 0.29462,2.46083 0.16203,-0.10341 1.24918,-0.84746 2.41588,-1.65345 z m -73.419145,-0.94669 v -2.51061 l -0.766011,0.15475 c -0.421306,0.0851 -2.009437,0.22471 -3.529181,0.31022 l -2.76317,0.15548 3.35241,2.1896 c 1.843824,1.20427 3.431957,2.19444 3.52918,2.20037 0.09722,0.005 0.176772,-1.11898 0.176772,-2.49981 z m 62.695005,-3.35353 v -3.8782 l -1.35791,-1.52887 c -1.40694,-1.58409 -2.87685,-4.22704 -3.49525,-6.28459 -0.19615,-0.65261 -0.41539,-2.30365 -0.48721,-3.66899 -0.2306,-4.38356 0.91855,-7.73467 3.74942,-10.93398 l 1.59095,-1.79802 V 114.14331 99.594825 H 123.64146 96.300781 v 14.554095 14.5541 l 1.473096,1.64518 c 2.856553,3.19025 4.090173,6.71547 3.875803,11.07558 -0.19819,4.03098 -1.47096,7.21993 -4.111497,10.30146 l -1.237402,1.44407 v 3.74666 3.74665 h 27.340679 27.34068 z M 111.2018,136.52098 c -3.28861,-3.44746 -6.13058,-6.56979 -6.31548,-6.93846 -0.66669,-1.32933 -0.44676,-2.2971 0.87666,-3.85747 1.78674,-2.10667 2.87362,-2.65029 4.04686,-2.02411 0.28315,0.15112 2.31868,2.16156 4.52339,4.46762 l 4.00857,4.19286 10.01449,-10.54981 c 10.41699,-10.97383 10.60987,-11.1447 12.04003,-10.66662 0.69096,0.23097 2.7532,2.26479 3.18198,3.1381 0.18314,0.37298 0.33297,1.15827 0.33297,1.74507 v 1.06691 l -12.20416,12.84703 -12.20413,12.84702 h -1.16096 -1.16094 z m -25.850661,12.58073 c 3.669797,-0.80861 6.617514,-3.09099 7.613658,-5.89517 1.02503,-2.88548 0.501429,-5.18093 -1.71294,-7.50943 -0.812854,-0.85475 -1.993549,-1.78505 -2.729027,-2.15026 -0.712979,-0.35405 -2.009509,-0.99303 -2.881178,-1.41993 -4.732569,-2.31786 -9.044768,-6.84602 -10.747348,-11.28557 -0.867298,-2.26153 -0.32154,-4.58346 1.360279,-5.78733 2.373309,-1.69887 4.909591,-0.69742 6.364315,2.51296 0.755103,1.6664 2.797942,4.05134 4.570357,5.3357 l 1.082745,0.78462 0.06649,-13.84599 0.06649,-13.845996 0.636575,-1.270941 c 0.729854,-1.457173 1.745809,-2.44665 3.220924,-3.136981 1.000057,-0.468014 1.88956,-0.482575 31.465341,-0.514964 33.98053,-0.03725 31.13601,-0.185949 33.15764,1.733664 0.5532,0.525265 1.25327,1.513581 1.55575,2.196245 l 0.54995,1.241216 0.003,13.591317 c 8.9e-4,7.47521 0.0925,13.5913 0.20264,13.5913 0.90362,0 4.69606,-4.128 5.68165,-6.18437 0.80717,-1.68413 1.81361,-2.66704 2.96354,-2.89426 3.30363,-0.65275 5.90419,2.69695 4.69542,6.04807 -0.77795,2.15678 -2.33109,4.58354 -4.23097,6.61089 -2.26988,2.42215 -4.00616,3.66623 -7.86689,5.63678 -2.0834,1.06338 -3.28621,1.85651 -4.20804,2.77475 -1.86544,1.85818 -2.29344,2.83787 -2.29842,5.26102 -0.004,1.74124 0.0819,2.14955 0.69416,3.31363 1.35694,2.5802 3.95647,4.42569 7.27831,5.16708 2.69886,0.60234 8.38322,0.34274 11.06389,-0.5053 6.35064,-2.00903 11.06682,-6.01302 13.78005,-11.69906 1.8302,-3.83552 2.54365,-7.79047 2.34168,-12.98086 -0.21993,-5.65222 -1.2595,-9.80548 -3.83432,-15.31884 -2.5235,-5.40351 -6.19565,-10.196978 -11.14451,-14.54762 -7.78554,-6.844414 -18.88526,-12.182638 -30.39988,-14.620311 l -2.43859,-0.516254 -1.80393,1.101468 c -5.06491,3.092585 -9.92407,4.46261 -15.82782,4.46261 -3.69947,0 -6.19202,-0.39006 -9.51596,-1.489158 -1.90566,-0.630123 -6.04146,-2.67832 -7.27705,-3.603848 -0.64395,-0.482351 -0.66322,-0.482109 -3.18189,0.04009 -9.319391,1.932171 -18.997616,6.033794 -26.148926,11.08189 -12.291349,8.676445 -19.399512,21.416923 -19.399512,34.771163 0,5.0921 1.079853,9.42778 3.339681,13.40903 1.034779,1.82302 3.918752,5.04718 5.736997,6.41373 4.913555,3.69288 12.15493,5.26558 18.156348,3.94322 z M 128.23752,75.045192 c 8.74849,-1.911756 15.34697,-8.608735 17.45184,-17.712374 0.57897,-2.5041 0.69376,-6.653051 0.2569,-9.285564 -1.5651,-9.431286 -7.72159,-16.379397 -16.84245,-19.008122 -2.43053,-0.700503 -8.29146,-0.765691 -10.73317,-0.119386 -4.31118,1.141153 -7.74545,3.187639 -10.89399,6.491745 -4.00361,4.201416 -6.07131,9.123769 -6.38662,15.203957 -0.61356,11.831201 6.76438,21.961409 17.77528,24.406229 2.77122,0.615308 6.61988,0.624963 9.37221,0.02352 z"
       id="path1" /></g></svg>
