<?xml version="1.0" encoding="UTF-8" standalone="no"?>
<!-- Created with Inkscape (http://www.inkscape.org/) -->

<svg
   width="187mm"
   height="241mm"
   viewBox="0 0 187 241"
   version="1.1"
   id="svg1"
   xml:space="preserve"
   inkscape:version="1.4.2 (ebf0e940, 2025-05-08)"
   sodipodi:docname="logo.svg"
   xmlns:inkscape="http://www.inkscape.org/namespaces/inkscape"
   xmlns:sodipodi="http://sodipodi.sourceforge.net/DTD/sodipodi-0.dtd"
   xmlns="http://www.w3.org/2000/svg"
   xmlns:svg="http://www.w3.org/2000/svg"><sodipodi:namedview
     id="namedview1"
     pagecolor="#ffffff"
     bordercolor="#000000"
     borderopacity="0.25"
     inkscape:showpageshadow="2"
     inkscape:pageopacity="0.0"
     inkscape:pagecheckerboard="0"
     inkscape:deskcolor="#d1d1d1"
     inkscape:document-units="mm"
     inkscape:zoom="0.4408675"
     inkscape:cx="436.63913"
     inkscape:cy="686.1472"
     inkscape:window-width="1512"
     inkscape:window-height="916"
     inkscape:window-x="0"
     inkscape:window-y="38"
     inkscape:window-maximized="0"
     inkscape:current-layer="layer1" /><defs
     id="defs1" /><g
     inkscape:label="Ebene 1"
     inkscape:groupmode="layer"
     id="layer1"><path
       style="fill:#000000"
       d="m 58.662818,238.83175 c -1.290431,-0.30467 -2.197739,-1.05723 -2.876762,-2.3861 -0.806134,-1.57764 -0.805758,-3.57281 8.99e-4,-4.76981 1.004052,-1.48991 1.98945,-1.8699 6.239444,-2.40603 14.104055,-1.7792 23.206345,-4.70837 40.392471,-12.99855 10.6702,-5.14706 10.64549,-5.14112 19.94547,-4.79861 9.07098,0.33408 17.93303,0.28139 21.06494,-0.12524 9.16114,-1.18941 16.57249,-3.76845 22.77027,-7.92372 5.24846,-3.5188 8.22683,-7.05982 10.05274,-11.9518 0.65327,-1.75027 0.74292,-2.35895 0.75986,-5.15938 0.0161,-2.66384 -0.0793,-3.45998 -0.59243,-4.94518 -3.3503,-9.69628 -15.82306,-14.37167 -27.74415,-10.39984 -4.23093,1.40965 -7.61249,3.26488 -13.09382,7.18369 -3.01713,2.15706 -4.17936,3.07647 -15.83268,12.52485 -10.80359,8.75943 -18.8906,14.58662 -25.510396,18.38182 -10.99833,6.30545 -21.91449,10.24039 -32.433348,11.69121 -4.646535,0.64088 -15.52662,0.64307 -20.094472,0.004 -12.738944,-1.78213 -24.179259,-6.63374 -31.107824,-13.19221 -4.2562982,-4.02894 -7.4360232,-9.0883 -9.0308152,-14.36921 -0.66001599,-2.18555 -0.72052399,-2.76179 -0.73623099,-7.01146 -0.01955,-5.28981 0.27241099,-6.83579 1.99086599,-10.54193 1.372037,-2.95903 2.942575,-5.09733 5.535355,-7.53643 4.7500802,-4.46854 10.8412942,-7.12171 18.1528482,-7.9069 l 2.942016,-0.31595 -1.945795,-1.10886 C 10.586732,149.12525 5.6622968,127.70991 15.634923,107.12235 19.81877,98.485195 25.587777,91.608457 33.853491,85.405588 c 8.10856,-6.084938 19.218849,-11.2226 29.539335,-13.659689 1.091406,-0.257726 2.020477,-0.498029 2.064601,-0.534007 0.04412,-0.03598 -0.446811,-0.882595 -1.090969,-1.881369 -3.881311,-6.01798 -5.55935,-11.708638 -5.567728,-18.881538 -0.0088,-7.569064 1.761029,-13.53539 5.844928,-19.703565 3.209646,-4.847738 8.901076,-9.764636 13.978496,-12.076198 2.17308,-0.989329 6.10099,-2.351486 6.78072,-2.351486 0.62641,0 0.60659,-0.133311 -0.17139,-1.153296 -2.91536,-3.822236 -2.80528,-8.6984611 0.26015,-11.5240779 2.3401,-2.157026 5.19543,-3.08388803 8.82602,-2.86499103 4.84834,0.29231903 8.317106,2.67608203 9.327866,6.41017183 0.63809,2.357339 -0.18075,5.7117321 -1.92674,7.8929591 -0.44453,0.555348 -0.76653,1.036741 -0.71554,1.069762 0.051,0.03302 1.04521,0.331166 2.20938,0.662545 8.7349,2.486381 16.84217,9.086886 21.11493,17.190647 1.49028,2.826464 2.93142,7.050753 3.47923,10.198333 0.53361,3.065949 0.53192,9.108466 -0.003,12.168865 -0.7867,4.497529 -2.6708,9.301525 -5.13557,13.094474 -0.60185,0.926164 -1.05829,1.71424 -1.01432,1.751279 0.044,0.03704 1.03246,0.273275 2.19662,0.52497 5.08131,1.098586 14.20202,4.529726 19.36018,7.28315 19.09098,10.19076 30.63116,25.569213 33.01961,44.001983 1.98222,15.29775 -4.25026,28.69044 -16.63627,35.74892 l -1.95153,1.11213 2.94775,0.29984 c 7.71045,0.78431 14.29824,3.81805 19.01767,8.75782 4.59237,4.80679 6.8208,10.37615 6.81306,17.02741 -0.0142,12.19031 -7.76461,22.6092 -21.82463,29.33881 -7.37457,3.52972 -17.29016,5.79578 -25.36054,5.79578 -2.23894,0 -2.58745,0.0578 -2.45356,0.40669 0.771,2.0092 1.00977,3.54934 0.89656,5.7831 -0.14283,2.81821 -0.77896,4.69108 -2.25089,6.62704 -3.31011,4.35362 -7.56988,5.64505 -14.48782,4.39227 -8.12996,-1.47226 -16.19693,-3.95651 -22.800486,-7.02148 l -2.67496,-1.24155 -3.13727,1.18838 c -6.77638,2.56686 -14.71391,4.90997 -20.73208,6.11999 -2.8398,0.57097 -11.290917,1.79058 -11.850218,1.71014 -0.103575,-0.0149 -0.590415,-0.12201 -1.081868,-0.23805 z m 68.227082,-9.65523 c 2.3015,-1.19015 1.97383,-3.76172 -0.6372,-5.00073 -1.64925,-0.78262 -11.29593,-3.13075 -12.15556,-2.95883 -0.69341,0.13868 -6.5189,3.23276 -6.5189,3.46237 0,0.17629 7.37428,2.51404 10.05417,3.18732 3.01335,0.75704 7.25363,1.64719 8.01678,1.68294 0.26189,0.0123 0.82021,-0.15562 1.24071,-0.37307 z M 57.704285,211.56743 c 8.517475,-0.72946 16.770779,-3.10547 24.699349,-7.11058 l 1.6806,-0.84896 -2.34206,-1.69916 c -3.94033,-2.85871 -8.12415,-6.13693 -15.174348,-11.88979 -17.59617,-14.35822 -23.07321,-17.89427 -30.618502,-19.7677 -3.303673,-0.82028 -8.757868,-0.81597 -12.111704,0.01 -8.614298,2.12039 -13.8722632,8.20208 -13.8867142,16.06226 -0.01361,7.40486 5.4299232,14.64287 14.4766522,19.24892 9.605376,4.89047 21.389061,7.01353 33.276727,5.99544 z m 38.463289,-14.78129 c 3.37584,-2.26991 10.488776,-7.67011 16.570046,-12.5801 8.98643,-7.25563 9.50185,-7.66878 10.31874,-8.27141 l 0.79375,-0.58556 -30.162486,0.004 -30.162506,0.004 0.905365,0.71518 c 0.49795,0.39335 3.772171,3.07523 7.276041,5.95972 3.50388,2.88449 8.23424,6.66202 10.51192,8.3945 4.28498,3.2593 10.99222,7.92451 11.39318,7.92451 0.12572,0 1.2759,-0.70422 2.55595,-1.56492 z m 40.117956,-30.26445 c 1.30969,-0.85905 2.97656,-1.8769 3.70417,-2.26188 l 1.32291,-0.69996 -3.0427,-0.15638 c -1.67349,-0.086 -3.4892,-0.24843 -4.0349,-0.36093 l -0.99219,-0.20454 v 2.82318 c 0,2.18903 0.0743,2.77818 0.33073,2.62281 0.1819,-0.11021 1.40229,-0.90324 2.71198,-1.7623 z m -82.417703,-1.009 v -2.67586 l -0.859896,0.16493 c -0.472943,0.0907 -2.255722,0.2395 -3.961733,0.33064 l -3.101836,0.16572 3.763295,2.33372 c 2.069812,1.28355 3.852592,2.3389 3.961732,2.34522 0.109141,0.006 0.198438,-1.19264 0.198438,-2.66437 z m 70.379163,-3.57427 v -4.13347 l -1.52433,-1.62951 c -1.57938,-1.68837 -3.22945,-4.50528 -3.92365,-6.69826 -0.22018,-0.69557 -0.4663,-2.45529 -0.54692,-3.9105 -0.25886,-4.67211 1.03113,-8.2438 4.20896,-11.6537 l 1.78594,-1.91637 V 116.4905 100.98439 H 93.555324 62.86366 v 15.5121 15.5121 l 1.653645,1.75347 c 3.206669,3.40024 4.591479,7.1575 4.350839,11.80462 -0.22248,4.29631 -1.651243,7.69516 -4.615422,10.97953 l -1.389062,1.53912 v 3.99328 3.99328 H 93.555324 124.24699 Z M 79.591014,140.34116 c -3.69168,-3.6744 -6.88197,-7.00224 -7.08954,-7.39519 -0.7484,-1.41682 -0.50151,-2.44829 0.98411,-4.11138 2.00573,-2.24533 3.22583,-2.82474 4.54287,-2.15734 0.31785,0.16107 2.60286,2.30384 5.0778,4.7617 l 4.49987,4.46885 11.24191,-11.24424 c 11.693736,-11.69617 11.910256,-11.87829 13.515706,-11.36874 0.77564,0.24617 3.09064,2.41386 3.57198,3.34467 0.20557,0.39753 0.37377,1.2345 0.37377,1.85993 v 1.13714 l -13.69994,13.69267 -13.699936,13.69266 h -1.30324 -1.30323 z m -29.019031,13.40883 c 4.119583,-0.86183 7.428584,-3.29445 8.54682,-6.2832 1.150662,-3.07542 0.562886,-5.52196 -1.922885,-8.00374 -0.91248,-0.91101 -2.237886,-1.90255 -3.063508,-2.2918 -0.800365,-0.37735 -2.255803,-1.05838 -3.234308,-1.51339 -5.312612,-2.47043 -10.153333,-7.29665 -12.064587,-12.02843 -0.973598,-2.41039 -0.360952,-4.88516 1.527,-6.16828 2.664191,-1.81069 5.511332,-0.74331 7.144352,2.67838 0.847651,1.77609 3.140869,4.31801 5.130518,5.68692 l 1.215451,0.83626 0.07464,-14.75739 0.07464,-14.757375 0.714597,-1.354598 c 0.819308,-1.55309 1.959782,-2.6077 3.615693,-3.34347 1.12263,-0.49882 2.121154,-0.51434 35.321868,-0.54886 38.145326,-0.0397 34.952166,-0.19819 37.221586,1.84778 0.62099,0.55984 1.40688,1.61321 1.74643,2.34081 l 0.61735,1.322918 0.003,14.485935 c 10e-4,7.96726 0.10378,14.48593 0.22747,14.48593 1.01438,0 5.27164,-4.39972 6.37802,-6.59145 0.9061,-1.79498 2.0359,-2.84259 3.32676,-3.08476 3.70854,-0.69572 6.62783,2.87447 5.27092,6.44617 -0.8733,2.29875 -2.6168,4.88525 -4.74955,7.04604 -2.54808,2.58159 -4.49716,3.90756 -8.83107,6.00781 -2.33875,1.13339 -3.68899,1.97872 -4.7238,2.9574 -2.09408,1.98049 -2.57454,3.02467 -2.58013,5.60733 -0.004,1.85586 0.092,2.29103 0.77924,3.53175 1.52325,2.75004 4.4414,4.717 8.17037,5.50719 3.02965,0.64199 9.41072,0.36529 12.41993,-0.53856 7.12899,-2.14128 12.42323,-6.40882 15.46899,-12.46913 2.05453,-4.08799 2.85542,-8.30327 2.62869,-13.83532 -0.2469,-6.02427 -1.41388,-10.45091 -4.30427,-16.32718 -2.83279,-5.75918 -6.95501,-10.868175 -12.51042,-15.505193 -8.73977,-7.29494 -21.19991,-12.984546 -34.12582,-15.582676 l -2.73747,-0.550236 -2.02503,1.17397 c -5.68569,3.296152 -11.1404,4.756357 -17.767746,4.756357 -4.15289,0 -6.95093,-0.415735 -10.68228,-1.587181 -2.13922,-0.6716 -6.78192,-2.854616 -8.16895,-3.841066 -0.72287,-0.514102 -0.74451,-0.513844 -3.57187,0.04272 C 60.671004,81.607729 49.806573,85.979338 41.778769,91.359717 27.98094,100.60728 20.00157,114.18638 20.00157,128.41964 c 0,5.42729 1.212205,10.04836 3.749007,14.29167 1.161605,1.94302 4.399051,5.37941 6.440147,6.8359 5.515782,3.93598 13.644689,5.6122 20.381667,4.20278 z M 98.714704,74.818806 c 9.820746,-2.037595 17.227956,-9.175394 19.590806,-18.87827 0.64994,-2.66893 0.77879,-7.09098 0.28839,-9.896775 -1.75693,-10.05209 -8.66799,-17.457552 -18.906736,-20.25931 -2.72842,-0.746612 -9.30769,-0.816092 -12.04866,-0.12724 -4.83958,1.216267 -8.69477,3.397461 -12.22921,6.919056 -4.49431,4.47797 -6.81544,9.724331 -7.1694,16.20474 -0.688753,12.609976 7.59345,23.406993 19.95391,26.012741 3.11086,0.655809 7.43123,0.666099 10.5209,0.02506 z"
       id="path1" /></g></svg>
